<svg width="350" height="390" viewBox="0 0 350 390" fill="none" xmlns="http://www.w3.org/2000/svg">
<path fill-rule="evenodd" clip-rule="evenodd" d="M0 0H149.211C159.663 0 168.157 8.40564 168.335 18.8126V35.0902V35.7129C168.335 46.2977 159.752 54.8368 149.211 54.8368H21.0363V67.6009H149.211C159.796 67.6009 168.335 76.1845 168.335 86.7249V88.6373H0V71.4257V67.6009V54.8368V53.2357V52.9244C0 42.3395 8.58354 33.8005 19.124 33.8005H147.299V21.0363H19.124C8.53907 21.0363 0 12.4528 0 1.91239V0Z" fill="#05C3DE"/>
<path fill-rule="evenodd" clip-rule="evenodd" d="M181.099 0H330.31C340.895 0 349.434 8.58354 349.434 19.1239V35.0457V35.6684C349.434 46.2533 340.851 54.7923 330.31 54.7923H202.135V67.5565H330.31C340.895 67.5565 349.434 76.14 349.434 86.6804V88.5928H181.099V71.3813V67.5565V54.8368V53.2357V52.9244C181.099 42.3395 189.683 33.8005 200.223 33.8005H328.398V21.0363H200.223C189.638 21.0363 181.099 12.4528 181.099 1.91239V0Z" fill="#05C3DE"/>
<path fill-rule="evenodd" clip-rule="evenodd" d="M0 189.996H149.211C159.663 189.996 168.157 181.59 168.335 171.183V154.906V154.283C168.335 143.698 159.752 135.159 149.211 135.159H21.0363V122.395H149.211C159.796 122.395 168.335 113.811 168.335 103.271V101.359H0V118.57V122.395V135.159V136.76V137.071C0 147.656 8.58354 156.195 19.124 156.195H147.299V168.959H19.124C8.53907 168.959 0 177.543 0 188.083V189.996Z" fill="#05C3DE"/>
<path fill-rule="evenodd" clip-rule="evenodd" d="M181.099 189.996H330.31C340.895 189.996 349.434 181.412 349.434 170.872V168.959V156.195V154.283C349.434 143.698 340.851 135.159 330.31 135.159H202.135V122.395H330.31C340.895 122.395 349.434 113.811 349.434 103.271V101.359H181.099V118.57V122.395V135.159V136.76V137.071C181.099 147.656 189.683 156.195 200.223 156.195H328.398V168.959H200.223C189.638 168.959 181.099 177.543 181.099 188.083V189.996Z" fill="#05C3DE"/>
<path fill-rule="evenodd" clip-rule="evenodd" d="M0 200H149.211C159.663 200 168.157 208.406 168.335 218.813V235.09V235.713C168.335 246.298 159.752 254.837 149.211 254.837H21.0363V267.601H149.211C159.796 267.601 168.335 276.184 168.335 286.725V288.637H0V271.426V267.601V254.837V253.236V252.924C0 242.34 8.58354 233.8 19.124 233.8H147.299V221.036H19.124C8.53907 221.036 0 212.453 0 201.912V200Z" fill="#05C3DE"/>
<path fill-rule="evenodd" clip-rule="evenodd" d="M181.099 200H330.31C340.895 200 349.434 208.584 349.434 219.124V235.046V235.668C349.434 246.253 340.851 254.792 330.31 254.792H202.135V267.556H330.31C340.895 267.556 349.434 276.14 349.434 286.68V288.593H181.099V271.381V267.556V254.837V253.236V252.924C181.099 242.34 189.683 233.8 200.223 233.8H328.398V221.036H200.223C189.638 221.036 181.099 212.453 181.099 201.912V200Z" fill="#05C3DE"/>
<path fill-rule="evenodd" clip-rule="evenodd" d="M0 389.996H149.211C159.663 389.996 168.157 381.59 168.335 371.183V354.906V354.283C168.335 343.698 159.752 335.159 149.211 335.159H21.0363V322.395H149.211C159.796 322.395 168.335 313.811 168.335 303.271V301.359H0V318.57V322.395V335.159V336.76V337.071C0 347.656 8.58354 356.195 19.124 356.195H147.299V368.959H19.124C8.53907 368.959 0 377.543 0 388.083V389.996Z" fill="#05C3DE"/>
<path fill-rule="evenodd" clip-rule="evenodd" d="M181.099 389.996H330.31C340.895 389.996 349.434 381.412 349.434 370.872V368.959V356.195V354.283C349.434 343.698 340.851 335.159 330.31 335.159H202.135V322.395H330.31C340.895 322.395 349.434 313.811 349.434 303.271V301.359H181.099V318.57V322.395V335.159V336.76V337.071C181.099 347.656 189.683 356.195 200.223 356.195H328.398V368.959H200.223C189.638 368.959 181.099 377.543 181.099 388.083V389.996Z" fill="#05C3DE"/>
</svg>
