<svg width="17" height="17" viewBox="0 0 17 17" fill="none" xmlns="http://www.w3.org/2000/svg">
<g clip-path="url(#clip0_295_1428)">
<path d="M14.1668 1.41675C14.7304 1.41675 15.2709 1.64063 15.6694 2.03915C16.0679 2.43766 16.2918 2.97816 16.2918 3.54175V4.95842H14.8752V13.4584C14.8752 14.022 14.6513 14.5625 14.2528 14.961C13.8542 15.3595 13.3137 15.5834 12.7502 15.5834H2.8335C2.26991 15.5834 1.72941 15.3595 1.33089 14.961C0.932379 14.5625 0.708496 14.022 0.708496 13.4584V12.0417H12.0418V13.4584C12.0419 13.6319 12.1055 13.7994 12.2208 13.929C12.3361 14.0587 12.495 14.1415 12.6673 14.1618L12.7502 14.1667C12.9237 14.1667 13.0911 14.103 13.2208 13.9877C13.3504 13.8725 13.4332 13.7136 13.4535 13.5413L13.4585 13.4584V10.6251H2.12516V3.54175C2.12516 2.97816 2.34905 2.43766 2.74756 2.03915C3.14608 1.64063 3.68658 1.41675 4.25016 1.41675H14.1668Z" fill="#05C3DE"/>
</g>
<defs>
<clipPath id="clip0_295_1428">
<rect width="17" height="17" fill="white"/>
</clipPath>
</defs>
</svg>
