<svg width="223" height="33" viewBox="0 0 223 33" fill="none" xmlns="http://www.w3.org/2000/svg">
<path fill-rule="evenodd" clip-rule="evenodd" d="M0 0.916504H24.8593C26.6005 0.916504 28.0158 2.31692 28.0454 4.05077V6.7627V6.86643C28.0454 8.62992 26.6154 10.0526 24.8593 10.0526H3.50475V12.1791H24.8593C26.6228 12.1791 28.0454 13.6092 28.0454 15.3653V15.6839H0V12.8164V12.1791V10.0526V9.78582V9.73396C0 7.97047 1.43006 6.54782 3.18614 6.54782H24.5407V4.42126H3.18614C1.42265 4.42126 0 2.9912 0 1.23512V0.916504Z" fill="#05C3DE"/>
<path fill-rule="evenodd" clip-rule="evenodd" d="M30.172 0.916504H55.0313C56.7948 0.916504 58.2174 2.34656 58.2174 4.10264V6.75529V6.85902C58.2174 8.62251 56.7874 10.0452 55.0313 10.0452H33.6767V12.1717H55.0313C56.7948 12.1717 58.2174 13.6018 58.2174 15.3579V15.6765H30.172V12.8089V12.1717V10.0526V9.78582V9.73396C30.172 7.97047 31.6021 6.54782 33.3581 6.54782H54.7127V4.42126H33.3581C31.5946 4.42126 30.172 2.9912 30.172 1.23512V0.916504Z" fill="#05C3DE"/>
<path fill-rule="evenodd" clip-rule="evenodd" d="M0 32.5701H24.8593C26.6005 32.5701 28.0158 31.1697 28.0454 29.4358V26.7239V26.6202C28.0454 24.8567 26.6154 23.434 24.8593 23.434H3.50475V21.3075H24.8593C26.6228 21.3075 28.0454 19.8774 28.0454 18.1213V17.8027H0V20.6703V21.3075V23.434V23.7008V23.7527C0 25.5162 1.43006 26.9388 3.18614 26.9388H24.5407V29.0654H3.18614C1.42265 29.0654 0 30.4954 0 32.2515V32.5701Z" fill="#05C3DE"/>
<path fill-rule="evenodd" clip-rule="evenodd" d="M30.172 32.5701H55.0313C56.7948 32.5701 58.2174 31.1401 58.2174 29.384V29.0654V26.9388V26.6202C58.2174 24.8567 56.7874 23.434 55.0313 23.434H33.6767V21.3075H55.0313C56.7948 21.3075 58.2174 19.8774 58.2174 18.1213V17.8027H30.172V20.6703V21.3075V23.434V23.7008V23.7527C30.172 25.5162 31.6021 26.9388 33.3581 26.9388H54.7127V29.0654H33.3581C31.5946 29.0654 30.172 30.4954 30.172 32.2515V32.5701Z" fill="#05C3DE"/>
<path d="M129.817 8.09619C127.883 8.09619 126.312 9.66703 126.312 11.6009H135.426V25.368C137.36 25.368 138.931 23.7972 138.931 21.8633V11.6009H144.54C146.474 11.6009 148.044 10.0301 148.044 8.09619H129.817Z" fill="white"/>
<path d="M219.495 21.8855H204.883V11.6009H219.495C221.429 11.6009 223 10.0301 223 8.09619H204.883C202.949 8.09619 201.379 9.66703 201.379 11.6009V21.8855C201.379 23.8194 202.949 25.3903 204.883 25.3903H223C223 23.4563 221.429 21.8855 219.495 21.8855Z" fill="white"/>
<path d="M169.095 11.6009V14.9649H153.55V8.09619C151.616 8.09619 150.045 9.66703 150.045 11.6009V25.3977C151.979 25.3977 153.55 23.8268 153.55 21.8929V18.4771H169.095V25.3977C171.029 25.3977 172.607 23.8268 172.607 21.8929V8.09619C170.666 8.09619 169.095 9.65962 169.095 11.6009Z" fill="white"/>
<path d="M194.362 21.8855H179.75V18.4993H191.835C193.769 18.4993 195.347 16.9285 195.347 14.9945H179.75V11.6009H194.362C196.296 11.6009 197.867 10.0301 197.867 8.09619H179.75C177.816 8.09619 176.245 9.66703 176.245 11.6009V21.8855C176.245 23.8194 177.816 25.3903 179.75 25.3903H197.867C197.867 23.4563 196.296 21.8855 194.362 21.8855Z" fill="white"/>
<path fill-rule="evenodd" clip-rule="evenodd" d="M81.0466 22.5009V26.2279C82.9731 26.2279 84.5365 24.6645 84.5365 22.738V22.5009H94.8581V22.5083C96.7921 22.5083 98.3629 20.9374 98.3629 19.0035V10.7048H98.3481V10.6751H84.5291V7.25928C82.6249 7.25928 81.0763 8.78566 81.0392 10.6751H67.3759V14.165H67.3833V19.0035C67.3833 20.9374 68.9541 22.5083 70.888 22.5083V22.5009H81.0466ZM84.5365 18.9961H94.8581V14.165H84.5365V18.9961ZM81.0466 14.165V18.9961H70.8954V14.165H81.0466Z" fill="white"/>
<path fill-rule="evenodd" clip-rule="evenodd" d="M121.636 8.83675L105.35 19.5881V8.08838C103.416 8.08838 101.845 9.65922 101.845 11.5931V25.3898C102.564 25.3898 103.238 25.175 103.794 24.7971L120.295 13.9049V25.3898C122.229 25.3898 123.8 23.819 123.8 21.8851V8.08838C122.985 8.08838 122.237 8.36995 121.636 8.83675Z" fill="white"/>
</svg>
